<svg width="99" height="102" viewBox="0 0 99 102" fill="none" xmlns="http://www.w3.org/2000/svg">
<path d="M0.771851 101.578L0.771851 0.228238H98.5777L75.5437 51.9661L98.5777 101.578H0.771851Z" fill="#264653"/>
<path d="M29.0458 43.78C28.7818 43.924 28.0858 44.236 26.9578 44.716C26.7658 44.788 26.4658 44.908 26.0578 45.076C25.6498 45.244 25.3138 45.4 25.0498 45.544V41.08C27.9298 39.592 29.6938 38.512 30.3418 37.84H35.0578V67H29.0458V43.78ZM48.15 67.432C45.366 67.432 43.29 66.7 41.922 65.236C40.578 63.748 39.858 61.396 39.762 58.18L45.27 57.352C45.294 59.2 45.51 60.532 45.918 61.348C46.35 62.14 46.986 62.536 47.826 62.536C48.906 62.536 49.446 61.828 49.446 60.412C49.446 59.284 49.182 58.312 48.654 57.496C48.15 56.68 47.346 55.804 46.242 54.868L43.722 52.672C42.474 51.616 41.502 50.5 40.806 49.324C40.134 48.124 39.798 46.708 39.798 45.076C39.798 42.628 40.518 40.744 41.958 39.424C43.422 38.104 45.426 37.444 47.97 37.444C50.73 37.444 52.602 38.248 53.586 39.856C54.594 41.464 55.134 43.42 55.206 45.724L49.662 46.408C49.614 44.896 49.47 43.816 49.23 43.168C49.014 42.496 48.522 42.16 47.754 42.16C47.202 42.16 46.77 42.4 46.458 42.88C46.17 43.336 46.026 43.852 46.026 44.428C46.026 45.412 46.242 46.24 46.674 46.912C47.13 47.584 47.85 48.352 48.834 49.216L51.246 51.34C52.686 52.564 53.802 53.86 54.594 55.228C55.386 56.596 55.782 58.216 55.782 60.088C55.782 61.456 55.458 62.704 54.81 63.832C54.186 64.936 53.298 65.812 52.146 66.46C50.994 67.108 49.662 67.432 48.15 67.432Z" fill="#E9C46A"/>
</svg>
