<svg width="102" height="98" viewBox="0 0 102 98" fill="none" xmlns="http://www.w3.org/2000/svg">
<path d="M0 0H101.35V97.8058L49.6117 74.7718L0 97.8058V0Z" fill="#264653"/>
<path d="M41.3713 35.3085C39.762 35.3085 38.6134 34.897 37.9255 34.0739C37.2375 33.2385 36.8935 32.01 36.8935 30.3884V24.8419C36.8935 23.2203 37.2375 22.0041 37.9255 21.1933C38.6134 20.3702 39.762 19.9587 41.3713 19.9587C42.9929 19.9587 44.1477 20.3702 44.8356 21.1933C45.5359 22.0164 45.886 23.2325 45.886 24.8419V30.3884C45.886 32.01 45.5359 33.2385 44.8356 34.0739C44.1477 34.897 42.9929 35.3085 41.3713 35.3085ZM41.3713 32.9682C41.8382 32.9682 42.1453 32.8147 42.2927 32.5076C42.4401 32.1882 42.5138 31.7582 42.5138 31.2177V24.0311C42.5138 23.4782 42.4401 23.0483 42.2927 22.7412C42.1453 22.434 41.8382 22.2805 41.3713 22.2805C40.9291 22.2805 40.6342 22.4402 40.4868 22.7596C40.3394 23.0667 40.2657 23.4905 40.2657 24.0311V31.2177C40.2657 31.7582 40.3333 32.1882 40.4684 32.5076C40.6035 32.8147 40.9045 32.9682 41.3713 32.9682ZM47.8934 20.1614H50.2152L53.2741 27.348V20.1614H56.0014V35.0874H53.7717L50.7128 27.348V35.0874H47.8934V20.1614ZM58.2227 20.1614H64.9302V22.4095H61.5212V26.1133H64.1194V28.3983H61.5212V32.8577H64.9671V35.0874H58.2227V20.1614ZM17.0523 55.3085C15.6273 55.3085 14.5647 54.9338 13.8644 54.1844C13.1765 53.4228 12.808 52.2189 12.7588 50.5727L15.5782 50.1489C15.5905 51.0948 15.701 51.7766 15.9099 52.1943C16.131 52.5997 16.4565 52.8024 16.8865 52.8024C17.4393 52.8024 17.7157 52.44 17.7157 51.7152C17.7157 51.1378 17.5806 50.6403 17.3103 50.2226C17.0523 49.8049 16.6408 49.3565 16.0757 48.8774L14.7858 47.7534C14.147 47.2128 13.6495 46.6416 13.2932 46.0396C12.9492 45.4254 12.7772 44.7006 12.7772 43.8652C12.7772 42.6122 13.1458 41.6478 13.8829 40.9721C14.6322 40.2965 15.658 39.9587 16.9602 39.9587C18.373 39.9587 19.3312 40.3702 19.8349 41.1933C20.3508 42.0164 20.6272 43.0176 20.6641 44.1969L17.8263 44.547C17.8017 43.7731 17.728 43.2203 17.6052 42.8886C17.4946 42.5446 17.2428 42.3726 16.8496 42.3726C16.5671 42.3726 16.346 42.4955 16.1863 42.7412C16.0389 42.9746 15.9651 43.2387 15.9651 43.5335C15.9651 44.0372 16.0757 44.461 16.2968 44.805C16.5302 45.149 16.8988 45.5421 17.4025 45.9843L18.6371 47.0715C19.3742 47.6981 19.9454 48.3614 20.3508 49.0617C20.7562 49.7619 20.9589 50.5911 20.9589 51.5494C20.9589 52.2496 20.7931 52.8884 20.4614 53.4658C20.142 54.0309 19.6874 54.4793 19.0978 54.811C18.5081 55.1427 17.8263 55.3085 17.0523 55.3085ZM26.8311 55.3085C25.2095 55.3085 24.0548 54.8847 23.3668 54.037C22.6912 53.1771 22.3533 51.9425 22.3533 50.3332V44.9524C22.3533 43.3063 22.6912 42.0655 23.3668 41.2301C24.0425 40.3825 25.1973 39.9587 26.8311 39.9587C28.3913 39.9587 29.4969 40.3333 30.148 41.0827C30.7991 41.8321 31.1247 42.8947 31.1247 44.2706V45.5605H27.8999V44.0679C27.8999 43.4905 27.8385 43.0483 27.7156 42.7412C27.5928 42.434 27.298 42.2805 26.8311 42.2805C26.3643 42.2805 26.0572 42.4463 25.9098 42.778C25.7624 43.0974 25.6887 43.5458 25.6887 44.1232V51.144C25.6887 51.7336 25.7624 52.1882 25.9098 52.5076C26.0695 52.8147 26.3766 52.9682 26.8311 52.9682C27.2857 52.9682 27.5744 52.8147 27.6972 52.5076C27.8323 52.1882 27.8999 51.7336 27.8999 51.144V49.5776H31.1247V50.8675C31.1247 52.268 30.7991 53.3614 30.148 54.1476C29.4969 54.9215 28.3913 55.3085 26.8311 55.3085ZM32.9946 40.1614H36.2931V46.2055H38.5965V40.1614H41.9134V55.0874H38.5965V48.5641H36.2931V55.0874H32.9946V40.1614ZM44.1864 40.1614H50.8939V42.4095H47.4848V46.1133H50.0831V48.3983H47.4848V52.8577H50.9307V55.0874H44.1864V40.1614ZM52.4282 40.1614H56.2058C57.4957 40.1614 58.503 40.3211 59.2279 40.6405C59.9527 40.9599 60.4625 41.4635 60.7573 42.1515C61.0644 42.8272 61.218 43.7362 61.218 44.8787V50.2963C61.218 51.4511 61.0644 52.3724 60.7573 53.0604C60.4625 53.7483 59.9527 54.2581 59.2279 54.5898C58.5153 54.9215 57.5203 55.0874 56.2426 55.0874H52.4282V40.1614ZM56.2426 52.8024C56.7218 52.8024 57.0719 52.7348 57.293 52.5997C57.5264 52.4523 57.6738 52.2496 57.7353 51.9916C57.7967 51.7213 57.8274 51.3282 57.8274 50.8123V44.3075C57.8274 43.8284 57.7905 43.466 57.7168 43.2203C57.6554 42.9623 57.508 42.7719 57.2746 42.649C57.0534 42.5262 56.7033 42.4647 56.2242 42.4647H55.7267V52.8024H56.2426ZM67.5374 55.3085C66.4194 55.3085 65.5349 55.1304 64.8838 54.7741C64.2328 54.4056 63.7721 53.8712 63.5018 53.1709C63.2438 52.4584 63.1148 51.5555 63.1148 50.4621V40.1614H66.3764V50.9597C66.3764 51.5616 66.4502 52.0407 66.5976 52.397C66.7573 52.7533 67.0705 52.9314 67.5374 52.9314C68.0042 52.9314 68.3113 52.7533 68.4587 52.397C68.6061 52.0407 68.6798 51.5616 68.6798 50.9597V40.1614H71.9599V50.4621C71.9599 51.5555 71.8248 52.4584 71.5545 53.1709C71.2842 53.8712 70.8235 54.4056 70.1725 54.7741C69.5336 55.1304 68.6553 55.3085 67.5374 55.3085ZM74.0586 40.1614H77.357V52.8577H80.7845V55.0874H74.0586V40.1614ZM82.2284 40.1614H88.9359V42.4095H85.5269V46.1133H88.1251V48.3983H85.5269V52.8577H88.9728V55.0874H82.2284V40.1614Z" fill="#E9C46A"/>
</svg>
